<svg xmlns="http://www.w3.org/2000/svg" x="0px" y="0px" width="100" height="100" viewBox="0 0 50 50">
<svg aria-hidden="true" focusable="false" role="presentation" class="icon icon-instagram" viewBox="0 0 1024 1024"><path d="M511.839.323c-139.008 0-156.438.589-211.031 3.08-54.479 2.485-91.687 11.138-124.243 23.792-33.658 13.078-62.202 30.58-90.659 59.034-28.455 28.457-45.956 57.001-59.034 90.659C14.218 209.445 5.565 246.652 3.08 301.131.589 355.724 0 373.154 0 512.162c0 139.006.589 156.436 3.08 211.029 2.485 54.479 11.138 91.687 23.792 124.243 13.078 33.658 30.58 62.202 59.034 90.659 28.457 28.455 57.001 45.956 90.659 59.036 32.557 12.652 69.764 21.305 124.243 23.79 54.593 2.491 72.023 3.08 211.031 3.08 139.006 0 156.436-.589 211.029-3.08 54.479-2.485 91.687-11.138 124.243-23.79 33.658-13.08 62.202-30.582 90.659-59.036 28.455-28.457 45.956-57.001 59.036-90.659 12.652-32.557 21.305-69.764 23.79-124.243 2.491-54.593 3.08-72.023 3.08-211.029 0-139.008-.589-156.438-3.08-211.031-2.485-54.479-11.138-91.687-23.79-124.243-13.08-33.658-30.582-62.202-59.036-90.659-28.457-28.455-57.001-45.956-90.659-59.034-32.557-12.654-69.764-21.307-124.243-23.792C668.275.912 650.845.323 511.839.323zm0 92.223c136.665 0 152.854.522 206.826 2.985 49.904 2.276 77.005 10.614 95.041 17.623 23.891 9.285 40.942 20.376 58.852 38.288 17.912 17.91 29.003 34.96 38.288 58.852 7.01 18.036 15.348 45.137 17.623 95.041 2.462 53.971 2.985 70.16 2.985 206.828 0 136.665-.522 152.854-2.985 206.826-2.276 49.904-10.614 77.005-17.623 95.041-9.285 23.891-20.376 40.942-38.288 58.852-17.91 17.912-34.96 29.003-58.852 38.288-18.036 7.01-45.137 15.348-95.041 17.623-53.963 2.462-70.15 2.985-206.826 2.985-136.678 0-152.862-.522-206.828-2.985-49.904-2.276-77.005-10.614-95.041-17.623-23.891-9.285-40.942-20.376-58.852-38.288-17.91-17.91-29.003-34.96-38.288-58.852-7.01-18.036-15.348-45.137-17.623-95.041-2.462-53.971-2.985-70.16-2.985-206.826s.522-152.856 2.985-206.828c2.276-49.904 10.614-77.005 17.623-95.041 9.285-23.891 20.376-40.942 38.288-58.852 17.91-17.912 34.96-29.003 58.852-38.288 18.036-7.01 45.137-15.348 95.041-17.623 53.971-2.462 70.16-2.985 206.828-2.985zm.162 592.277c-95.449 0-172.824-77.375-172.824-172.822 0-95.449 77.375-172.824 172.824-172.824 95.447 0 172.822 77.375 172.822 172.824 0 95.447-77.375 172.822-172.822 172.822zm0-439.063c-147.042 0-266.241 119.199-266.241 266.241 0 147.04 119.199 266.239 266.241 266.239 147.04 0 266.239-119.199 266.239-266.239 0-147.042-119.199-266.241-266.239-266.241zm348.159-20.479c0 33.933-27.508 61.439-61.441 61.439-33.931 0-61.439-27.506-61.439-61.439s27.508-61.441 61.439-61.441c33.933 0 61.441 27.508 61.441 61.441z"></path></svg>
</svg>
