<svg xmlns="http://www.w3.org/2000/svg" x="0px" y="0px" width="100" height="100" viewBox="0 0 50 50">
<svg aria-hidden="true" focusable="false" role="presentation" class="icon icon-pinterest" viewBox="0 0 1024 1024"><path d="M284.474 1024c-30.985-214.826 43.379-373.881 78.496-543.264-57.837-99.151 8.263-297.452 130.137-247.878 150.792 59.904-130.137 365.619 59.904 404.867 198.303 41.312 280.928-344.963 154.923-470.966-177.645-179.711-516.41-4.13-477.163 256.14 10.329 64.034 76.429 82.626 26.852 169.382-115.677-26.852-146.66-117.741-142.53-235.485C121.29 160.56 290.674 24.226 460.056 3.57c214.826-24.789 417.26 80.559 444.114 282.993 33.051 227.221-97.085 475.098-324.307 456.507-64.034-4.13-90.888-35.115-136.333-66.101-30.985 140.463-64.034 274.73-159.055 347.029z"></path></svg>
</svg>
